<?xml version="1.0" encoding="UTF-8"?>
<svg width="32px" height="32px" viewBox="0 0 32 32" version="1.1" xmlns="http://www.w3.org/2000/svg">
  <title>Agronegócio e Poder</title>
  <g id="logo" stroke="none" stroke-width="1" fill="none" fill-rule="evenodd">
    <circle fill="#2F855A" cx="16" cy="16" r="16"></circle>
    <path d="M16,5 C17.1045695,5 18,5.8954305 18,7 L18,14 L25,14 C26.1045695,14 27,14.8954305 27,16 C27,17.1045695 26.1045695,18 25,18 L18,18 L18,25 C18,26.1045695 17.1045695,27 16,27 C14.8954305,27 14,26.1045695 14,25 L14,18 L7,18 C5.8954305,18 5,17.1045695 5,16 C5,14.8954305 5.8954305,14 7,14 L14,14 L14,7 C14,5.8954305 14.8954305,5 16,5 Z" fill="#FFFFFF"></path>
  </g>
</svg>